<svg id="Layer_1" data-name="Layer 1" xmlns="http://www.w3.org/2000/svg" viewBox="0 0 49.54 22.8"><defs><style>.cls-1{fill:#1900a9;}.cls-2{fill:red;}</style></defs><g id="LeD9QF"><path class="cls-1" d="M7.09,6.36V0H19.43V6.36Z"/><path class="cls-1" d="M7.1,16.46H19.43v6.35H7.1Z"/><path class="cls-1" d="M12.32,8.26v6.31H0V8.26Z"/><path class="cls-1" d="M26.51,8.27v6.31H14.2V8.27Z"/><path class="cls-2" d="M25.14,20V19.4c0-.9,0-1.79,0-2.69,0-.22.07-.29.28-.28s.69,0,1,0,.28.07.28.28c0,1.06,0,2.12,0,3.18,0,.87,0,1.74,0,2.61,0,.22-.06.29-.29.3-1.08,0-1.08,0-1.66-.87l-1.62-2.5a.55.55,0,0,0-.24-.2c0,.11,0,.21,0,.32,0,1,0,1.95,0,2.92,0,.26-.07.34-.32.33s-.65,0-1,0c-.18,0-.25-.07-.25-.25V16.68c0-.2.08-.26.25-.25s0,0,.06,0a2.58,2.58,0,0,1,1,.05c.26.14.4.52.58.8l1.62,2.5.19.27Z"/><path class="cls-2" d="M25.18,3.07l.3.14a1.35,1.35,0,0,1,.78,1.18c.11,1.18-.55,2-1.91,2-.93,0-1.85,0-2.78,0-.26,0-.23-.16-.23-.32V.74a5.37,5.37,0,0,1,0-.57c0-.07.11-.17.16-.17,1,0,1.95,0,2.92.05a1.37,1.37,0,0,1,1.33,1,1.64,1.64,0,0,1-.46,1.82A1.32,1.32,0,0,0,25.18,3.07ZM23.57,5.14a4.34,4.34,0,0,0,.51,0,.56.56,0,0,0,.55-.58c0-.51-.2-.76-.72-.78h-.34c-.83,0-.67,0-.68.69S22.8,5.14,23.57,5.14Zm-.68-3.28c0,.71-.1.64.66.64a.62.62,0,0,0,.31,0c.14-.11.31-.24.35-.39.15-.53-.09-.83-.64-.83C22.8,1.23,22.9,1.13,22.89,1.86Z"/><path class="cls-2" d="M41.89,0l.26,0h2.29a2.65,2.65,0,0,1,2.64,2.15,4.53,4.53,0,0,1,0,2,2.62,2.62,0,0,1-2.68,2.19c-.77,0-1.53,0-2.29,0-.18,0-.26,0-.26-.24V.19A1.35,1.35,0,0,1,41.89,0ZM43.4,3.18h0c0,.38,0,.76,0,1.14,0,.81-.13.71.74.71a1.32,1.32,0,0,0,1.12-.51,2.66,2.66,0,0,0-.07-2.76l-.12-.12a1.4,1.4,0,0,0-1-.3c-.8,0-.71-.1-.71.7Z"/><path class="cls-2" d="M28.84,0V.37c0,1.11,0,2.21,0,3.32a3.05,3.05,0,0,0,.06.6,1,1,0,0,0,1.9-.06,4.21,4.21,0,0,0,.05-.62c0-1.08,0-2.16,0-3.24V0h1.42a.22.22,0,0,1,.15.16c0,1.42,0,2.84-.07,4.26a2.14,2.14,0,0,1-2.12,2,4.22,4.22,0,0,1-.94,0,2.13,2.13,0,0,1-2-2.14c0-1.35,0-2.71,0-4.07,0-.14,0-.23.21-.23Z"/><path class="cls-2" d="M33.42,10.46c0,.62,0,1.24,0,1.86a2.48,2.48,0,0,1-1,1.93c-.84.63-3.06.72-3.8-.59a2.73,2.73,0,0,1-.37-1.39c0-1.25,0-2.5,0-3.75,0-.22.08-.3.3-.3s.65,0,1,0,.28.07.27.28c0,1.06,0,2.12,0,3.18a3.64,3.64,0,0,0,.11.93.83.83,0,0,0,.93.64.87.87,0,0,0,.91-.7,2.4,2.4,0,0,0,.06-.6c0-1.14,0-2.29,0-3.43,0-.22.06-.31.28-.3h1.06c.19,0,.25.06.25.25,0,.66,0,1.32,0,2Z"/><path class="cls-2" d="M30.34,16.44h2c.18,0,.26.05.25.25s0,.57,0,.85-.08.26-.27.26c-.78,0-1.56,0-2.35,0-.23,0-.33.07-.31.31a5.42,5.42,0,0,1,0,.57c0,.2.08.27.27.27.58,0,1.17,0,1.75,0,.25,0,.36.07.33.34A5.3,5.3,0,0,0,32,20c0,.19-.06.25-.25.24-.6,0-1.2,0-1.8,0-.22,0-.32.07-.3.3s0,.44,0,.65.08.32.31.32h2.27c.27,0,.38.07.35.35s0,.5,0,.75,0,.24-.23.24h-4c-.17,0-.24-.06-.24-.23,0-2,0-3.93,0-5.9,0-.21.11-.23.28-.23.64,0,1.29,0,1.94,0Z"/><path class="cls-2" d="M34.61,11.41c0-.95,0-1.9,0-2.86,0-.26.08-.33.33-.33.8,0,1.6,0,2.4,0A1.9,1.9,0,0,1,39.4,9.92,2.78,2.78,0,0,1,39.05,12a1.82,1.82,0,0,1-1.54.84h-.89c-.45,0-.45,0-.45.43s0,.69,0,1c0,.17-.05.24-.23.24h-1c-.23,0-.32-.07-.31-.31,0-.48,0-1,0-1.43Zm1.56-.86v.26c0,.75,0,.75.76.74a.86.86,0,0,0,.93-1c0-.67-.3-1-.91-1h-.52c-.19,0-.27.08-.26.28S36.17,10.31,36.17,10.55Z"/><path class="cls-2" d="M33.75,19.61c0-1,0-1.93,0-2.89,0-.23.08-.29.3-.29H36.5a2,2,0,0,1,2.07,1.74,2.81,2.81,0,0,1-.35,2,1.87,1.87,0,0,1-1.57.89c-.35,0-.69,0-1,0s-.31.06-.3.29,0,.72,0,1.08-.06.32-.29.31a7.37,7.37,0,0,0-.94,0c-.25,0-.34-.08-.33-.33,0-.48,0-.95,0-1.43V19.61Zm1.57-.85h0v.77c0,.16.06.24.23.24h.69a.67.67,0,0,0,.68-.51,2.12,2.12,0,0,0,0-.87.72.72,0,0,0-.73-.6c-.22,0-.44,0-.66,0s-.24.06-.24.23S35.32,18.51,35.32,18.76Z"/><path class="cls-2" d="M44.55,22.79H43.12c-.06,0-.14-.12-.16-.19a5.13,5.13,0,0,1-.21-.74.26.26,0,0,0-.29-.22c-.54,0-1.09,0-1.63,0a.28.28,0,0,0-.32.25c-.08.3-.11.71-.31.86s-.61.05-.92.05h-.56c.12-.38.21-.7.31-1,.53-1.68,1.07-3.36,1.59-5.05a.35.35,0,0,1,.41-.29q.63,0,1.26,0a.32.32,0,0,1,.38.28c.42,1.39.86,2.77,1.29,4.15.16.53.33,1.06.49,1.58A3.19,3.19,0,0,1,44.55,22.79Zm-2.22-2.28-.64-2.42H41.6c-.2.74-.4,1.48-.58,2.23,0,0,.09.17.14.17Z"/><path class="cls-2" d="M47,16.44v2.22c0,.83,0,1.66,0,2.49,0,.24.08.32.32.32h2c.24,0,.32.09.31.32a6.59,6.59,0,0,0,0,.77c0,.17-.06.25-.23.25-1.23,0-2.47,0-3.7,0-.25,0-.23-.17-.23-.33V18.2c0-.5,0-1,0-1.49,0-.21.07-.29.29-.28Z"/><path class="cls-2" d="M36.81,3.18c0-1,0-1.91,0-2.87,0-.24.06-.34.32-.32s.63,0,1,0,.3.07.3.31c0,1.42,0,2.84,0,4.26,0,.47,0,.47.47.47h1.83c.24,0,.32.08.31.32a7.12,7.12,0,0,0,0,.8c0,.17-.07.23-.24.23H37.05c-.22,0-.25-.11-.25-.28V3.18Z"/><path class="cls-2" d="M35.36,0V6.38H34c-.05,0-.11-.08-.15-.14s0-.09,0-.14V.28c0-.23.07-.3.29-.29Z"/></g></svg>