<svg id="Layer_1" data-name="Layer 1" xmlns="http://www.w3.org/2000/svg" viewBox="0 0 245.87 164.74"><defs><style>.cls-1{fill:#1400a3;}</style></defs><path class="cls-1" d="M31.58,0C44.1,34.37,47.43,43.28,49.75,43.62v4H25.93v-4c1.9-.41,2.31-2.24.41-8.71h-13c-.27,5.24,1.09,8.24,4.08,8.71v4H0v-4C2.65,43.15,5.17,36.75,18.78,0ZM24.7,29.6c-1.36-4.15-3.26-9.39-5.78-16.19A98.44,98.44,0,0,0,14.09,29.6Z"/><path class="cls-1" d="M90.78,26.61l4,1.36V47.64H52.53v-4c3.27,0,3.82-2.92,3.82-19.8S55.8,4,52.53,4V0h24.1V4c-3.34,0-3.82,2.92-3.82,19.8V42.94h5.65Z"/><path class="cls-1" d="M138.35,26.61l4,1.36V47.64H100.1v-4c3.27,0,3.81-2.92,3.81-19.8S103.37,4,100.1,4V0h24.09V4c-3.33,0-3.81,2.92-3.81,19.8V42.94H126Z"/><path class="cls-1" d="M76.63,105.51H52.53v-4c3.27,0,3.82-2.93,3.82-19.81s-.55-19.8-3.82-19.8v-4H76.69c16.13,0,22.46,5,22.46,14s-6.4,13.88-20.69,13.88H72.81c0,12.87.55,15.73,3.82,15.73Zm-.89-24.43c4.63,0,5.79-4,5.79-9.26s-1.16-9.25-5.79-9.25H72.81V81.08Z"/><path class="cls-1" d="M150.26,90.61c0,8-2.79,15.72-11.78,15.72-5.37,0-9-2.38-11.09-12.18-2-9.46-3.33-11.51-5.72-11.51h-.61v2c0,13.13.48,16.81,3.81,16.81v4H100.78v-4c3.27,0,3.81-3.27,3.81-19.81,0-16.88-.54-19.8-3.81-19.8v-4h25c15.92,0,20.69,5.11,20.69,11.71,0,5.71-3.88,10.07-14.91,10.89,5.24,1.15,7.56,4.22,9.8,8.78,1.09,2.17,2,3.06,3.06,3.06.89,0,1.84-.61,1.91-2.72ZM123.65,77.2c4.22,0,5.58-2.79,5.58-7.15s-1.36-7.48-5.58-7.48h-2.59V77.2Z"/><path class="cls-1" d="M151.75,81.69c0-13.54,8.78-24.63,24.23-24.63s24.23,11.09,24.23,24.63-8.85,24.64-24.23,24.64S151.75,95.3,151.75,81.69Zm31,0c0-16-2-19.46-6.74-19.46s-6.74,3.47-6.74,19.46,1.91,19.47,6.74,19.47S182.72,97.68,182.72,81.69Z"/><path class="cls-1" d="M202.11,93.33c0-6.53,4.63-10.82,9.59-10.82,5.52,0,9.19,3.88,7.69,9.25-1.7-.06-4.08.75-4.08,4.29,0,2.72,1.63,4.42,4.29,4.42,4,0,6-3.4,6-10.27,0-25.39-.55-28.31-3.81-28.31V57.8h24.09v4.09c-3.54,0-3.81,2.58-3.81,26.06,0,13.55-9.26,18.31-21.17,18.31C208.44,106.26,202.11,101,202.11,93.33Z"/><path class="cls-1" d="M40.29,142.69l4,1.36v19.67H0v-4c3.27,0,3.81-2.93,3.81-19.81S3.27,120.1,0,120.1v-4H42.87v19l-3.94,1.36L26.61,120.78H20.28v15.45c3.4,0,6.94-4.36,6.94-7.56h4.63v19.81H27.22c0-3.34-3.54-7.62-6.94-7.62V159H28Z"/><path class="cls-1" d="M87.92,145.21l5,.82c-1.5,11.23-7.08,18.51-19,18.51-15.58,0-24.49-11-24.49-24.64s8.91-24.63,23.81-24.63c6.74,0,8.58,2.45,10.89,2.45,1.5,0,2.59-.55,3.27-2.66l4,1v19.67l-4,1c-3.61-8.64-8.3-16.4-13.75-16.4-4.69,0-6.73,3.54-6.73,19.53s3.33,19.53,9.18,19.53C83.64,159.43,86.43,153.51,87.92,145.21Z"/><path class="cls-1" d="M97.18,116.08h44.64v20.35l-3.95,1.36-9.59-17h-.89V139.9c0,16.54.75,19.81,5.17,19.81v4H106.43v-4c4.43,0,5.17-3.27,5.17-19.81V120.78h-.88l-9.6,17-3.94-1.36Z"/><path class="cls-1" d="M187.35,148.75c0,10.68-8,15.79-19.81,15.79-7.48,0-9.93-2.38-13.13-2.38-1.5,0-2.66.47-3.27,2.58l-3.95-1v-18.1l3.95-1.36c2.52,7.28,7.28,15.58,14.57,15.58,3.87,0,5.71-2.52,5.71-5.31,0-10.2-23.55-6.87-23.55-25,0-9.6,8.58-14.22,18.24-14.22,6.26,0,9.33,2.38,11.44,2.38,1.43,0,2.58-.48,3.26-2.59l3.95,1V131.6L180.68,133c-2.52-6.26-6.81-13-12.25-13-3.41,0-5.31,1.7-5.31,4.63C163.12,133.71,187.35,131.12,187.35,148.75Z"/></svg>